<?xml version="1.0" encoding="UTF-8"?>
<svg version="1.1" viewBox="0 0 1600 1600" xmlns="http://www.w3.org/2000/svg">
<defs>
<clipPath id="a">
<path d="m0 1200h1200v-1200h-1200z"/>
</clipPath>
</defs>
<g transform="matrix(1.3333 0 0 -1.3333 0 1600)">
<g clip-path="url(#a)">
<g transform="translate(746.62 272.38)">
<path d="m0 0c16.45 21.839 22.876 38.985 19.096 50.965-2.715 8.602-11.21 15.259-25.248 19.782l-5.933 1.913 5.116 15.796c-38.37-9.428-70.32-19.426-70.67-19.533l-3.615-1.137s-3.667 3.699-4.436 4.475c0.068-0.092 4.755-6.413 4.755-6.413l-6.921-3.218c-21.867-10.166-68.415-31.717-85.902-39.096 5.23-6.519 17.943-18.199 30.578-20.33l6.88 15.086 3.757 0.208c0.74 0.041 1.488 0.062 2.252 0.062 18.144 0 44.507-12.434 50.21-21.371 2.369-3.714 1.559-6.773 0.864-8.266l-0.459-0.99-0.769-0.774c-8.811-8.867-22.085-15.661-63.869-24.154l-1.548-0.316-1.51 0.461c-32.359 9.88-83.297 31.835-95.21 49.706-4.181 6.268-1.11 16.208 6.716 30.281l-3.461 7.013c-6.047 12.263-13.558 23.048-22.356 32.112-28.632-8.562-52.485-20.658-70.47-35.574 63.734-56.105 147.35-90.15 238.94-90.15 20.94 0 41.455 1.801 61.42 5.217l1.318 2.167c4.638 7.621 11.547 17.271 30.476 36.078m-374.76 122.3c-5.566 0.298-10.376 0.554-14.443 0.99-1.265 0.135-2.479 0.204-3.603 0.204-1.953 0-3.58-0.204-4.961-0.552 8.403-13.066 17.638-25.545 27.604-37.387 8.941 12.537 17.304 24.301 24.478 34.414-10.736 1.35-20.693 1.883-29.075 2.331m499.62-23.1-6.545 2.91c-1.556 0.691-3.426 1.274-5.592 1.743-0.97-17.524-3.005-38.276-7.266-49.811l-1.274-3.45-3.638-0.547c-24.169-3.639-41.057-11.569-48.84-22.934-6.474-9.447-4.619-18.155-4.537-18.521l0.491-2.188-1.004-2.062c-0.583-1.15-5.148-9.735-13.188-14.767l2.62-9.214c38.998 14.932 74.75 36.402 105.91 63.093-11.924 19.696-16.249 40.001-16.024 59.657zm-280.31 363.3 2.256-2.74c89.408-108.6 192.12-131.39 262.54-131.39 42.205 0 74.395 8.206 86.444 11.793 17.702 6.362 36.455 9.585 55.742 9.585 5.375 0 10.626-0.249 15.746-0.699-15.588 185.45-171.02 331.11-360.5 331.11-198.32 0-359.35-159.58-361.75-357.33 56.017 49.008 133.5 113.81 296.01 139.12zm403.06-150.05c6.8 2.277 13.807 4.003 20.975 5.191-0.07-36.072-5.434-70.898-15.329-103.76l-32.074 93.67c0.07 2.314 0.857 4.224 2.392 5.822 2.224 2.307 5.955 3.743 9.739 3.743 3.24 0 6.079-1.053 7.595-2.821l2.73-3.178z" fill="#ed1c24"/>
</g>
<g transform="translate(285.08 324.87)">
<path d="m0 0c-0.152-1.237-0.487-2.505-1.017-3.706-0.902-2.054-2.369-3.919-4.483-5.133-1.628-0.977-3.513-1.514-5.455-1.646-1.904-0.149-4.067 0.173-5.967 1.189-1.188 0.65-2.224 1.454-3.145 2.359-1.811 1.769-3.146 3.944-4.109 6.254-0.066 0.162-0.137 0.321-0.202 0.481-0.025 0.066-0.056 0.131-0.081 0.199-0.611 1.698-1.04 3.536-1.184 5.453-0.175 2.342 0.074 4.803 1.015 7.303l7.905-3.827c-1.244-1.657-1.802-4.471-1.428-7.247 0.099-0.77 0.279-1.542 0.506-2.301 0.169-0.565 0.365-1.119 0.605-1.651 0.572-1.281 1.351-2.434 2.335-3.324 0.036-0.03 0.059-0.075 0.097-0.107 0.336-0.302 0.737-0.553 1.162-0.778 1.277-0.673 2.894-0.989 4.528-0.901 0.116 7e-3 0.231 7e-3 0.352 0.02 0.733 0.064 1.466 0.21 2.163 0.446 1.563 0.492 2.942 1.494 4.063 2.798 1.013 1.168 1.815 2.581 2.34 4.119m-28.503 112.66-3.883-13.446-3.66 39.245c16.56 1.921 23.642-24.427 7.543-25.799m56.255 128.42c3.477 6.119 7.954 11.6 12.7 16.782 4.828 5.113 10.056 9.848 15.629 14.175l4.267 3.14c1.481 0.977 2.924 1.998 4.438 2.945 1.527 0.935 3.029 1.89 4.668 2.738 0.778 0.449 1.623 0.873 2.545 1.268 0.484 0.201 0.802 0.403 1.433 0.604 0.647 0.2 1.311 0.373 1.972 0.524l2.32 0.516 1.183-2.536c1.304-2.788 2.466-5.652 3.361-8.616 0.855-2.967 1.522-5.99 1.931-9.053 0.816-6.123 0.751-12.345-0.143-18.435-0.852-6.107-2.592-12.066-5.157-17.74-1.291-2.842-2.788-5.612-4.698-8.28-0.83-1.171-1.777-2.311-2.88-3.434 0.332-0.346 0.665-0.693 0.987-1.04 1.608-1.756 3.027-3.571 4.404-5.398 2.71-3.664 5.163-7.405 7.532-11.181 4.7-7.569 9.11-15.226 13.179-23.054 4.101-7.808 8.034-15.681 11.859-23.602 3.748-7.963 7.393-15.941 10.929-24.025l1.091-2.495-2.187-1.313c-9.271-5.56-18.489-11.208-27.84-16.649-9.305-5.507-18.684-10.906-28.151-16.17 8.647 6.522 17.383 12.908 26.189 19.188 8.028 5.805 16.166 11.449 24.266 17.135-3.538 7.037-7.183 14.057-10.901 21.01-4.048 7.732-8.176 15.417-12.464 22.992-4.318 7.555-8.574 15.139-13.24 22.377-2.325 3.619-4.718 7.186-7.256 10.536-2.509 3.278-5.297 6.641-7.891 8.515l1.779 7.925c-0.4-0.124 0.624 0.299 1.322 1.042 0.771 0.722 1.573 1.66 2.306 2.682 1.491 2.035 2.805 4.368 3.931 6.795 2.254 4.87 3.847 10.129 4.801 15.477 0.958 5.354 1.177 10.833 0.628 16.225-0.47 4.357-1.462 8.641-2.914 12.782-0.404-0.172-0.798-0.316-1.218-0.535-1.467-0.664-2.922-1.488-4.385-2.283-1.456-0.812-2.884-1.714-4.327-2.566l-4.247-2.753c-5.622-3.762-10.975-7.964-15.964-12.555-5.019-4.552-9.754-9.486-13.712-15.017-3.971-5.507-7.358-11.51-9.517-18.106 1.232 6.824 3.925 13.393 7.442 19.463m-55.05-238.91c-5.455 4.876-9.745 11.186-11.827 18.468-0.48 1.837-0.807 3.739-0.832 5.754 0.025 1.021 0.061 2.048 0.36 3.157 0.287 1.072 0.776 2.339 1.904 3.317 1.093 0.973 2.573 1.359 3.772 1.336 1.224-0.011 2.287-0.303 3.263-0.658 1.932-0.744 3.536-1.84 4.974-3.067 2.9-2.427 5.153-5.444 6.774-8.751 1.565-3.297 2.419-7.112 1.619-10.615-0.195 3.555-1.563 6.778-3.491 9.548-1.902 2.785-4.316 5.226-6.993 7.104-1.341 0.923-2.774 1.694-4.161 2.15-1.409 0.461-2.659 0.333-2.974-0.137-0.433-0.367-0.823-1.861-0.757-3.334 0.045-1.509 0.346-3.098 0.778-4.66 0.807-3.156 2.24-6.209 3.933-9.091 1.494-2.586 3.321-4.978 5.313-7.245-0.175 2.342 0.074 4.803 1.015 7.303l7.905-3.827c-1.244-1.657-1.802-4.471-1.428-7.247 0.099-0.77 0.279-1.542 0.506-2.301 8.962 0.555 18.12 3.178 29.171 9.085 31.837 17.016-14.82 55.073 4.941 57.817 19.761 2.745 10.978-43.361 10.978-43.361s18.663 4.939 20.31 15.367c1.646 10.43-5.489 41.994 25.25 38.7 11.838-1.271 31.652-1.038 53.797-4.841-23.656-33.38-73.801-103.88-105.12-146.11-19.442-17.529-26.818-32.673-28.452-34.306 39.886-12.441 68.85 8.04 68.85 8.04s-13.776 28.736 9.277 33.678c8.131 15.199-4.939 28.543 33.851 44.645 21.969 29.122 57.897 47.692 96.443 58.683 9.853-9.52 18.781-21.43 26.146-36.363 16.504 21.71 33.678 41.121 40.141 48.287 0.442 0.039 0.883 0.075 1.326 0.114-11.605-23.052-52.443-74.019-45.127-84.994 10.247-15.369 57.087-36.594 91.852-47.206 38.998 7.923 52.4 14.094 60.695 22.44 2.378 5.124-27.578 21.84-47.338 20.742l-7.136-15.644c-22.506 0.049-47.207 29.365-42.267 30.462 4.941 1.098 91.119 41.168 91.119 41.168s-52.695 71.05-51.048 69.283c1.647-1.764 62.027-62.693 62.027-62.693s38.162 11.98 81.875 22.239l-6.616-20.431c45.361-14.617 33.243-48.65 8.943-80.774-17.418-17.278-24.738-26.792-29.86-35.21 32.386-9.331 60.38 0 60.38 0l-9.166 32.21c9.331 3.019 15.064 14.266 15.064 14.266s-9.558 38.79 58.507 49.035c4.389 11.883 6.387 35.28 7.225 54.831 5.569-0.552 10.314-1.596 13.999-3.234 13.174 46.111 30.74 70.261 30.74 70.261-18.663-41.715-37.326-103.19 14.271-154.79 20.943 16.579 99.098-2.562 123.95-43.364 3.111-17.432 6.692-35.678 6.692-35.678 4.747-2.878 31.643-6.381 54.891 0-17.645 28.56-42.678 53.366-67.477 73.416-10.022 29.437-21.446 56.128-21.446 56.128s-89.656 23.418-8.783 119.66l-34.15 99.731-4.567 13.331c-0.657 16.829 22.32 21.585 30.666 11.861 57.798 19.386 109.36-5.191 109.36-5.191s-75.164 50.693-157.25 21.095c-36.835-11.009-212.99-51.831-355.74 121.55-218.47-34.033-283.24-141.62-345.81-180.04l-0.075-0.457c-26.887-1.672-63.598-4.091-63.598-4.091s16.304-62.67-88.923-68.457c84.459-25.254 114.27 13.5 146.2 33.549l-10.068-62.092c27.445-12.625 7.776-117.87 17.652-120 5.966-1.286 11.476-2.165 16.905-2.4-0.066 0.162-0.137 0.321-0.202 0.481-1.003 0.753-1.985 1.533-2.92 2.376"/>
</g>
</g>
</g>
</svg>
